<svg width="168" height="55" fill="none" xmlns="http://www.w3.org/2000/svg"><path fill-rule="evenodd" clip-rule="evenodd" d="M11.65 54.367c-.433 0-.853-.006-1.28-.015-.794-.022-1.733-.067-2.65-.23a8.325 8.325 0 01-2.344-.774 7.61 7.61 0 01-1.979-1.434 7.524 7.524 0 01-1.446-1.973 8.101 8.101 0 01-.769-2.339c-.173-.95-.217-1.913-.235-2.647a104.45 104.45 0 01-.021-1.289V11.055s.013-.976.021-1.262c.018-.74.062-1.703.234-2.643a8.064 8.064 0 01.77-2.346A7.536 7.536 0 013.39 2.83a7.884 7.884 0 011.985-1.444 8.259 8.259 0 012.34-.768c.955-.17 1.92-.213 2.657-.231L11.649.37h145.543l1.293.018c.727.017 1.694.06 2.633.229.853.15 1.626.402 2.366.774a7.814 7.814 0 011.97 1.434 7.813 7.813 0 011.451 1.982c.365.721.613 1.486.759 2.328.163.89.214 1.805.245 2.664.004.4.004.83.004 1.256.013.53.013 1.033.013 1.542v29.545c0 .512 0 1.013-.013 1.517 0 .46 0 .88-.006 1.313-.029.832-.08 1.745-.242 2.616a8.08 8.08 0 01-.765 2.358 7.722 7.722 0 01-1.437 1.956 7.7 7.7 0 01-1.981 1.443 8.325 8.325 0 01-2.364.776c-.906.164-1.845.21-2.647.23-.413.01-.85.016-1.272.016l-1.535.003-144.015-.003z" fill="#000"/><path fill-rule="evenodd" clip-rule="evenodd" d="M42.227 26.043c-.03-3.236 2.65-4.811 2.773-4.886-1.517-2.211-3.87-2.514-4.696-2.537-1.975-.208-3.89 1.182-4.898 1.182-1.026 0-2.575-1.162-4.244-1.127-2.148.033-4.16 1.278-5.262 3.21-2.276 3.938-.578 9.727 1.6 12.91 1.091 1.56 2.365 3.303 4.034 3.24 1.631-.066 2.24-1.04 4.21-1.04 1.952 0 2.523 1.04 4.225 1.002 1.75-.028 2.854-1.567 3.907-3.141 1.26-1.787 1.765-3.548 1.785-3.638-.04-.014-3.4-1.295-3.434-5.175zm-3.214-9.517c.878-1.098 1.478-2.59 1.312-4.107-1.27.056-2.859.878-3.774 1.953-.81.945-1.532 2.496-1.346 3.954 1.427.107 2.893-.72 3.808-1.8zm18.85 15.741h4.413L60.1 25.858h-.06l-2.177 6.409zm4.991 1.822h-5.568l-1.337 3.948h-2.36l5.276-14.61h2.45l5.274 14.61h-2.398l-1.337-3.948zm12.88-1.377c0-2.156-1.116-3.574-2.816-3.574-1.67 0-2.794 1.447-2.794 3.574 0 2.146 1.124 3.584 2.794 3.584 1.7 0 2.816-1.408 2.816-3.584zm2.247 0c0 3.31-1.772 5.437-4.446 5.437-1.517 0-2.722-.68-3.35-1.864h-.05v5.275h-2.188V27.385h2.117v1.772h.04c.608-1.142 1.904-1.882 3.391-1.882 2.704 0 4.486 2.136 4.486 5.437zm9.475 0c0-2.156-1.114-3.574-2.814-3.574-1.67 0-2.794 1.447-2.794 3.574 0 2.146 1.123 3.584 2.794 3.584 1.7 0 2.814-1.408 2.814-3.584zm2.246 0c0 3.31-1.77 5.437-4.444 5.437-1.518 0-2.722-.68-3.35-1.864h-.051v5.275H79.67V27.385h2.116v1.772h.04c.609-1.142 1.904-1.882 3.392-1.882 2.703 0 4.484 2.136 4.484 5.437zm7.75 1.255c.16 1.449 1.569 2.4 3.491 2.4 1.844 0 3.17-.951 3.17-2.258 0-1.134-.8-1.813-2.693-2.278l-1.894-.456c-2.683-.648-3.928-1.902-3.928-3.939 0-2.52 2.197-4.251 5.316-4.251 3.087 0 5.203 1.731 5.274 4.251h-2.207c-.132-1.457-1.338-2.337-3.098-2.337-1.762 0-2.967.89-2.967 2.185 0 1.033.77 1.642 2.653 2.107l1.61.395c2.997.709 4.243 1.912 4.243 4.05 0 2.733-2.178 4.445-5.64 4.445-3.24 0-5.428-1.672-5.57-4.314h2.24zm13.687-9.101v2.52h2.026v1.731h-2.026v5.872c0 .913.406 1.337 1.297 1.337.222 0 .577-.03.718-.05v1.72c-.242.062-.728.102-1.214.102-2.156 0-2.997-.81-2.997-2.875v-6.106h-1.548v-1.732h1.548v-2.52h2.196zm11.074 7.847c0-2.3-1.052-3.657-2.824-3.657-1.772 0-2.824 1.367-2.824 3.657 0 2.308 1.052 3.654 2.824 3.654 1.772 0 2.824-1.346 2.824-3.654zm-7.875 0c0-3.352 1.974-5.458 5.051-5.458 3.089 0 5.053 2.106 5.053 5.457 0 3.36-1.954 5.457-5.053 5.457-3.097 0-5.051-2.097-5.051-5.457zm11.906-5.327h2.086v1.812h.051c.334-1.204 1.305-1.923 2.561-1.923.314 0 .576.041.749.081v2.045c-.173-.07-.558-.132-.982-.132-1.407 0-2.278.953-2.278 2.45v6.318h-2.187V27.386zm8.137 4.344h5.324c-.05-1.63-1.093-2.703-2.611-2.703-1.509 0-2.601 1.094-2.713 2.703zm7.39 3.179c-.294 1.934-2.176 3.26-4.586 3.26-3.098 0-5.022-2.076-5.022-5.406 0-3.341 1.934-5.508 4.931-5.508 2.946 0 4.799 2.024 4.799 5.254v.75h-7.523v.131c0 1.822 1.145 3.016 2.866 3.016 1.214 0 2.167-.576 2.46-1.497h2.075zm-85.628-16.45h1.323c1.469 0 2.315-.914 2.315-2.525 0-1.586-.86-2.51-2.315-2.51h-1.323v5.035zm1.445-6.027c2.082 0 3.303 1.279 3.303 3.488 0 2.242-1.211 3.532-3.303 3.532h-2.535v-7.02h2.535zm8.456 4.368c0-1.148-.516-1.819-1.421-1.819-.91 0-1.42.67-1.42 1.819 0 1.157.51 1.825 1.42 1.825.905 0 1.421-.672 1.421-1.825zm-3.921 0c0-1.707.953-2.748 2.5-2.748 1.542 0 2.496 1.04 2.496 2.748 0 1.717-.949 2.754-2.496 2.754-1.552 0-2.5-1.037-2.5-2.754zm11.637 2.652h-1.085l-1.094-3.903h-.083l-1.09 3.903h-1.074l-1.461-5.298h1.061l.948 4.043h.08l1.089-4.043h1.002l1.09 4.043h.082l.944-4.043h1.046l-1.455 5.298zm2.683-5.298h1.006v.841h.078c.257-.588.783-.943 1.581-.943 1.182 0 1.834.709 1.834 1.97v3.43h-1.046v-3.168c0-.851-.37-1.275-1.143-1.275s-1.265.517-1.265 1.342v3.1h-1.045v-5.297zm6.165 5.297h1.046v-7.365h-1.046v7.365zm6.42-2.651c0-1.148-.516-1.819-1.421-1.819-.91 0-1.42.67-1.42 1.819 0 1.157.51 1.825 1.42 1.825.905 0 1.421-.672 1.421-1.825zm-3.92 0c0-1.707.952-2.748 2.5-2.748 1.542 0 2.496 1.04 2.496 2.748 0 1.717-.95 2.754-2.497 2.754-1.551 0-2.5-1.037-2.5-2.754zm9.502.701v-.443l-1.294.082c-.73.05-1.06.298-1.06.765 0 .476.413.754.981.754.789 0 1.372-.501 1.372-1.158zm-3.405.452c0-.953.71-1.504 1.97-1.582l1.435-.082v-.458c0-.558-.37-.875-1.084-.875-.583 0-.988.214-1.105.588H91.41c.107-.909.962-1.492 2.164-1.492 1.329 0 2.077.66 2.077 1.78v3.62h-1.006v-.745h-.084c-.315.53-.894.831-1.59.831-1.021 0-1.766-.617-1.766-1.585zm6.899-1.153c0 1.123.53 1.8 1.416 1.8.881 0 1.425-.686 1.425-1.795 0-1.104-.55-1.8-1.425-1.8-.88 0-1.416.68-1.416 1.795zm-1.08 0c0-1.674.862-2.734 2.2-2.734.725 0 1.337.345 1.624.929h.079v-2.91h1.044v7.366h-1.001v-.837h-.083c-.316.58-.934.924-1.664.924-1.347 0-2.199-1.06-2.199-2.738zm13.194 0c0-1.148-.517-1.819-1.422-1.819-.909 0-1.42.67-1.42 1.819 0 1.157.511 1.825 1.42 1.825.905 0 1.422-.672 1.422-1.825zm-3.921 0c0-1.707.954-2.748 2.5-2.748 1.542 0 2.496 1.04 2.496 2.748 0 1.717-.949 2.754-2.496 2.754-1.551 0-2.5-1.037-2.5-2.754zm6.4-2.646h1.006v.841h.078c.257-.588.783-.943 1.581-.943 1.182 0 1.834.709 1.834 1.97v3.43h-1.046v-3.168c0-.851-.369-1.275-1.143-1.275-.773 0-1.265.517-1.265 1.342v3.1h-1.045v-5.297zm10.405-1.319v1.342h1.148v.881h-1.148v2.724c0 .555.229.799.749.799.161 0 .253-.01.399-.025v.87c-.171.03-.366.055-.569.055-1.163 0-1.625-.41-1.625-1.43v-2.993h-.841v-.88h.841v-1.343h1.046zm2.577-.749h1.036v2.918h.082c.257-.592.817-.948 1.616-.948 1.128 0 1.824.716 1.824 1.975v3.42h-1.047V16.29c0-.846-.394-1.275-1.133-1.275-.856 0-1.334.541-1.334 1.343v3.094h-1.044v-7.365zm6.976 4.228h2.676c-.024-.832-.53-1.373-1.304-1.373-.773 0-1.313.546-1.372 1.373zm3.677 1.707c-.238.95-1.085 1.533-2.295 1.533-1.518 0-2.447-1.041-2.447-2.735 0-1.693.949-2.767 2.442-2.767 1.474 0 2.364 1.007 2.364 2.67v.365h-3.741v.058c.035.929.575 1.518 1.41 1.518.634 0 1.067-.23 1.261-.642h1.006z" fill="#FFFFFE"/></svg>