<svg width="12" height="9" fill="none" xmlns="http://www.w3.org/2000/svg"><path d="M11.756.26a.864.864 0 00-1.22-.016L4.182 6.429l-2.71-2.71a.857.857 0 00-.61-.253.864.864 0 00-.61 1.473L3.564 8.25c.009.01.019.018.029.027l.003.003a.659.659 0 00.061.05l.007.005a.644.644 0 00.066.045l.006.003a.602.602 0 00.071.038l.006.002a.596.596 0 00.075.03l.005.002a.572.572 0 00.08.023l.003.001h-.001a.541.541 0 00.115.02.868.868 0 00.28-.02h.001a.728.728 0 00.08-.022l.004-.002a.694.694 0 00.073-.029l.006-.003a.67.67 0 00.07-.036l.006-.003a.69.69 0 00.066-.043l.006-.004a.699.699 0 00.06-.05l.004-.002a.585.585 0 00.03-.027l6.963-6.778a.857.857 0 00.26-.606.856.856 0 00-.243-.613z" fill="#44C724"/></svg>