<svg width="168" height="55" viewBox="0 0 168 55" fill="none" xmlns="http://www.w3.org/2000/svg">
<path fill-rule="evenodd" clip-rule="evenodd" d="M11.6494 54.3671C11.2175 54.3671 10.7969 54.3614 10.3692 54.3515C9.57609 54.3303 8.63713 54.2852 7.72084 54.1214C6.85694 53.9661 6.08934 53.712 5.37557 53.3478C4.63629 52.9751 3.97208 52.4923 3.3971 51.9135C2.81078 51.339 2.32785 50.6811 1.95113 49.9414C1.58433 49.2285 1.33365 48.4634 1.18212 47.6022C1.00934 46.6522 0.965436 45.6894 0.947025 44.9553C0.937111 44.6574 0.925781 43.6664 0.925781 43.6664V11.055C0.925781 11.055 0.938527 10.0795 0.947025 9.79291C0.965436 9.05318 1.00934 8.09041 1.1807 7.15022C1.33224 6.28345 1.58291 5.51831 1.95113 4.80399C2.32643 4.06286 2.80936 3.40077 3.3886 2.83045C3.9735 2.24601 4.64054 1.7618 5.37415 1.38629C6.10209 1.01784 6.86827 0.766558 7.71517 0.618331C8.66971 0.448928 9.63557 0.405165 10.372 0.386813L11.6494 0.369873H157.192L158.485 0.388225C159.212 0.405165 160.179 0.448928 161.118 0.616919C161.971 0.766558 162.744 1.01925 163.484 1.39053C164.211 1.7618 164.875 2.24601 165.454 2.8248C166.037 3.39795 166.519 4.06427 166.905 4.80682C167.27 5.52819 167.518 6.29333 167.664 7.1347C167.827 8.02547 167.878 8.94025 167.909 9.79856C167.913 10.1981 167.913 10.6286 167.913 11.055C167.926 11.5843 167.926 12.0883 167.926 12.5965V42.1418C167.926 42.6542 167.926 43.1554 167.913 43.6594C167.913 44.1182 167.913 44.5389 167.907 44.9722C167.878 45.8037 167.827 46.7171 167.665 47.5881C167.518 48.4535 167.27 49.2186 166.9 49.9456C166.519 50.6797 166.034 51.3418 165.463 51.9022C164.877 52.4923 164.212 52.9737 163.482 53.345C162.745 53.7177 161.996 53.9647 161.118 54.1214C160.212 54.2852 159.273 54.3303 158.471 54.3515C158.058 54.3614 157.621 54.3671 157.199 54.3671L155.664 54.3699L11.6494 54.3671Z" fill="black"/>
<path fill-rule="evenodd" clip-rule="evenodd" d="M42.2273 26.0432C42.1979 22.8068 44.8766 21.2316 45.0002 21.1574C43.4826 18.9458 41.1297 18.6434 40.3039 18.6199C38.3286 18.4117 36.4134 19.8022 35.4064 19.8022C34.3805 19.8022 32.8312 18.6399 31.1618 18.6752C29.0137 18.7081 27.002 19.9528 25.8997 21.8845C23.6244 25.8232 25.322 31.6124 27.5008 34.7958C28.5913 36.3557 29.8654 38.098 31.5336 38.0357C33.1653 37.9686 33.7747 36.9945 35.744 36.9945C37.6957 36.9945 38.2675 38.0357 39.9686 37.9969C41.7191 37.9686 42.8226 36.4298 43.8755 34.8558C45.1355 33.0688 45.6413 31.3077 45.6613 31.2183C45.6201 31.2041 42.2603 29.923 42.2273 26.0432Z" fill="#FFFFFE"/>
<path fill-rule="evenodd" clip-rule="evenodd" d="M39.0134 16.5256C39.891 15.428 40.491 13.9351 40.3251 12.4187C39.0545 12.4752 37.4664 13.2975 36.5511 14.3716C35.7417 15.3174 35.0194 16.868 35.2053 18.3256C36.6323 18.4326 38.0981 17.6056 39.0134 16.5256Z" fill="#FFFFFE"/>
<path fill-rule="evenodd" clip-rule="evenodd" d="M57.8626 32.2665H62.2765L60.1002 25.8585H60.0402L57.8626 32.2665ZM62.8542 34.0885H57.2862L55.9486 38.0366H53.5898L58.865 23.4277H61.3155L66.5894 38.0366H64.1906L62.8542 34.0885Z" fill="#FFFFFE"/>
<path fill-rule="evenodd" clip-rule="evenodd" d="M75.7336 32.7125C75.7336 30.5561 74.6184 29.1385 72.9184 29.1385C71.2479 29.1385 70.1244 30.5855 70.1244 32.7125C70.1244 34.8583 71.2479 36.2959 72.9184 36.2959C74.6184 36.2959 75.7336 34.8877 75.7336 32.7125ZM77.981 32.7124C77.981 36.0217 76.2093 38.1486 73.5353 38.1486C72.0177 38.1486 70.813 37.4698 70.1848 36.2852H70.1342V41.5603H67.9473V27.3855H70.0637V29.1572H70.1037C70.7119 28.0149 72.0083 27.2749 73.4953 27.2749C76.1987 27.2749 77.981 29.4113 77.981 32.7124Z" fill="#FFFFFE"/>
<path fill-rule="evenodd" clip-rule="evenodd" d="M87.4557 32.7125C87.4557 30.5561 86.3417 29.1385 84.6417 29.1385C82.9712 29.1385 81.8477 30.5855 81.8477 32.7125C81.8477 34.8583 82.9712 36.2959 84.6417 36.2959C86.3417 36.2959 87.4557 34.8877 87.4557 32.7125ZM89.7025 32.7124C89.7025 36.0217 87.932 38.1486 85.258 38.1486C83.7404 38.1486 82.5357 37.4698 81.9075 36.2852H81.8569V41.5603H79.6699V27.3855H81.7863V29.1572H81.8263C82.4345 28.0149 83.7298 27.2749 85.218 27.2749C87.9214 27.2749 89.7025 29.4113 89.7025 32.7124Z" fill="#FFFFFE"/>
<path fill-rule="evenodd" clip-rule="evenodd" d="M97.4516 33.9665C97.6128 35.4159 99.021 36.3665 100.943 36.3665C102.787 36.3665 104.113 35.4159 104.113 34.1089C104.113 32.9748 103.313 32.296 101.42 31.8313L99.5257 31.3749C96.8434 30.7267 95.5976 29.4726 95.5976 27.4362C95.5976 24.9163 97.7952 23.1846 100.914 23.1846C104.001 23.1846 106.117 24.9163 106.188 27.4362H103.981C103.849 25.9786 102.643 25.0986 100.883 25.0986C99.121 25.0986 97.9163 25.9892 97.9163 27.2844C97.9163 28.3173 98.6857 28.9255 100.569 29.3914L102.179 29.7855C105.176 30.4949 106.422 31.6984 106.422 33.836C106.422 36.5688 104.244 38.2805 100.782 38.2805C97.5422 38.2805 95.3541 36.6088 95.2129 33.9665H97.4516Z" fill="#FFFFFE"/>
<path fill-rule="evenodd" clip-rule="evenodd" d="M111.139 24.8655V27.3854H113.165V29.1171H111.139V34.9887C111.139 35.9016 111.545 36.3263 112.436 36.3263C112.658 36.3263 113.013 36.2957 113.154 36.2757V37.9968C112.912 38.058 112.426 38.098 111.94 38.098C109.784 38.098 108.943 37.2874 108.943 35.2228V29.1171H107.395V27.3854H108.943V24.8655H111.139Z" fill="#FFFFFE"/>
<path fill-rule="evenodd" clip-rule="evenodd" d="M122.213 32.7126C122.213 30.4139 121.161 29.0563 119.389 29.0563C117.617 29.0563 116.565 30.4233 116.565 32.7126C116.565 35.0208 117.617 36.3666 119.389 36.3666C121.161 36.3666 122.213 35.0208 122.213 32.7126ZM114.338 32.7123C114.338 29.3607 116.312 27.2549 119.389 27.2549C122.478 27.2549 124.442 29.3607 124.442 32.7123C124.442 36.0722 122.488 38.1686 119.389 38.1686C116.292 38.1686 114.338 36.0722 114.338 32.7123Z" fill="#FFFFFE"/>
<path fill-rule="evenodd" clip-rule="evenodd" d="M126.244 27.3855H128.33V29.1984H128.381C128.715 27.9937 129.686 27.2749 130.942 27.2749C131.256 27.2749 131.518 27.3161 131.691 27.3561V29.4007C131.518 29.3301 131.133 29.269 130.709 29.269C129.302 29.269 128.431 30.2219 128.431 31.7195V38.0369H126.244V27.3855Z" fill="#FFFFFE"/>
<path fill-rule="evenodd" clip-rule="evenodd" d="M134.381 31.7302H139.705C139.655 30.0996 138.612 29.0267 137.094 29.0267C135.585 29.0267 134.493 30.1208 134.381 31.7302ZM141.771 34.9087C141.477 36.8428 139.595 38.1686 137.185 38.1686C134.087 38.1686 132.163 36.0934 132.163 32.7629C132.163 29.4219 134.097 27.2549 137.094 27.2549C140.04 27.2549 141.893 29.2795 141.893 32.5088V33.2582H134.37V33.39C134.37 35.2123 135.515 36.4063 137.236 36.4063C138.45 36.4063 139.403 35.8299 139.696 34.9087H141.771Z" fill="#FFFFFE"/>
<path fill-rule="evenodd" clip-rule="evenodd" d="M56.143 18.4589H57.4664C58.9346 18.4589 59.7805 17.5448 59.7805 15.9343C59.7805 14.3484 58.9205 13.4238 57.4664 13.4238H56.143V18.4589ZM57.5879 12.4319C59.6702 12.4319 60.8914 13.7107 60.8914 15.92C60.8914 18.1623 59.6796 19.4516 57.5879 19.4516H55.0527V12.4319H57.5879Z" fill="#FFFFFE"/>
<path fill-rule="evenodd" clip-rule="evenodd" d="M66.0441 16.7998C66.0441 15.6516 65.5276 14.9811 64.6229 14.9811C63.7135 14.9811 63.203 15.6516 63.203 16.7998C63.203 17.9574 63.7135 18.6245 64.6229 18.6245C65.5276 18.6245 66.0441 17.9527 66.0441 16.7998ZM62.123 16.7997C62.123 15.0927 63.076 14.0515 64.623 14.0515C66.1653 14.0515 67.1193 15.0927 67.1193 16.7997C67.1193 18.5172 66.17 19.5537 64.623 19.5537C63.0712 19.5537 62.123 18.5172 62.123 16.7997Z" fill="#FFFFFE"/>
<path fill-rule="evenodd" clip-rule="evenodd" d="M73.7599 19.4518H72.6752L71.5812 15.5495H71.4976L70.4083 19.4518H69.3342L67.873 14.1543H68.9342L69.8824 18.1965H69.9612L71.0506 14.1543H72.0529L73.1423 18.1965H73.2246L74.1693 14.1543H75.2151L73.7599 19.4518Z" fill="#FFFFFE"/>
<path fill-rule="evenodd" clip-rule="evenodd" d="M76.4434 14.1539H77.4492V14.995H77.5269C77.7845 14.4068 78.3104 14.0515 79.108 14.0515C80.2903 14.0515 80.942 14.7609 80.942 16.022V19.4513H79.8962V16.2844C79.8962 15.4326 79.5268 15.0091 78.7527 15.0091C77.9798 15.0091 77.488 15.5256 77.488 16.3514V19.4513H76.4434V14.1539Z" fill="#FFFFFE"/>
<path fill-rule="evenodd" clip-rule="evenodd" d="M82.6083 19.4513H83.6541V12.0857H82.6083V19.4513Z" fill="#FFFFFE"/>
<path fill-rule="evenodd" clip-rule="evenodd" d="M89.0281 16.7998C89.0281 15.6516 88.5116 14.9811 87.6069 14.9811C86.6976 14.9811 86.187 15.6516 86.187 16.7998C86.187 17.9574 86.6976 18.6245 87.6069 18.6245C88.5116 18.6245 89.0281 17.9527 89.0281 16.7998ZM85.1074 16.7997C85.1074 15.0927 86.0603 14.0515 87.6073 14.0515C89.1496 14.0515 90.1037 15.0927 90.1037 16.7997C90.1037 18.5172 89.1543 19.5537 87.6073 19.5537C86.0556 19.5537 85.1074 18.5172 85.1074 16.7997Z" fill="#FFFFFE"/>
<path fill-rule="evenodd" clip-rule="evenodd" d="M94.6092 17.5013V17.0578L93.3163 17.1402C92.5869 17.1896 92.2564 17.4378 92.2564 17.9048C92.2564 18.3813 92.6693 18.6589 93.2375 18.6589C94.0257 18.6589 94.6092 18.1578 94.6092 17.5013ZM91.2051 17.9526C91.2051 16.9996 91.9145 16.4491 93.1756 16.3714L94.6097 16.2891V15.8315C94.6097 15.2726 94.2403 14.9562 93.5262 14.9562C92.9427 14.9562 92.538 15.1703 92.4215 15.5444H91.4098C91.5168 14.635 92.3721 14.0515 93.5744 14.0515C94.9026 14.0515 95.6508 14.7127 95.6508 15.8315V19.4513H94.645V18.7066H94.5614C94.2461 19.2372 93.6673 19.5384 92.9709 19.5384C91.9498 19.5384 91.2051 18.9208 91.2051 17.9526Z" fill="#FFFFFE"/>
<path fill-rule="evenodd" clip-rule="evenodd" d="M98.1043 16.7999C98.1043 17.9234 98.6337 18.5999 99.5196 18.5999C100.401 18.5999 100.945 17.914 100.945 16.8046C100.945 15.7012 100.395 15.0047 99.5196 15.0047C98.6396 15.0047 98.1043 15.6859 98.1043 16.7999ZM97.0244 16.7996C97.0244 15.1256 97.8856 14.0656 99.2232 14.0656C99.949 14.0656 100.561 14.4115 100.848 14.995H100.927V12.0857H101.971V19.4513H100.97V18.6137H100.887C100.571 19.1937 99.9525 19.5384 99.2232 19.5384C97.8761 19.5384 97.0244 18.4784 97.0244 16.7996Z" fill="#FFFFFE"/>
<path fill-rule="evenodd" clip-rule="evenodd" d="M110.218 16.7998C110.218 15.6516 109.701 14.9811 108.796 14.9811C107.887 14.9811 107.376 15.6516 107.376 16.7998C107.376 17.9574 107.887 18.6245 108.796 18.6245C109.701 18.6245 110.218 17.9527 110.218 16.7998ZM106.297 16.7997C106.297 15.0927 107.251 14.0515 108.797 14.0515C110.339 14.0515 111.293 15.0927 111.293 16.7997C111.293 18.5172 110.344 19.5537 108.797 19.5537C107.246 19.5537 106.297 18.5172 106.297 16.7997Z" fill="#FFFFFE"/>
<path fill-rule="evenodd" clip-rule="evenodd" d="M112.697 14.1539H113.703V14.995H113.781C114.038 14.4068 114.564 14.0515 115.362 14.0515C116.544 14.0515 117.196 14.7609 117.196 16.022V19.4513H116.15V16.2844C116.15 15.4326 115.781 15.0091 115.007 15.0091C114.234 15.0091 113.742 15.5256 113.742 16.3514V19.4513H112.697V14.1539Z" fill="#FFFFFE"/>
<path fill-rule="evenodd" clip-rule="evenodd" d="M123.102 12.835V14.1773H124.25V15.0584H123.102V17.7818C123.102 18.3371 123.331 18.5806 123.851 18.5806C124.012 18.5806 124.104 18.5701 124.25 18.5559V19.4265C124.079 19.4559 123.884 19.4806 123.681 19.4806C122.518 19.4806 122.056 19.0712 122.056 18.0501V15.0584H121.215V14.1773H122.056V12.835H123.102Z" fill="#FFFFFE"/>
<path fill-rule="evenodd" clip-rule="evenodd" d="M125.679 12.0857H126.715V15.0044H126.797C127.054 14.4115 127.614 14.0562 128.413 14.0562C129.541 14.0562 130.237 14.7715 130.237 16.0314V19.4513H129.19V16.2891C129.19 15.4432 128.796 15.0138 128.057 15.0138C127.201 15.0138 126.723 15.555 126.723 16.3573V19.4513H125.679V12.0857Z" fill="#FFFFFE"/>
<path fill-rule="evenodd" clip-rule="evenodd" d="M132.655 16.3142H135.331C135.307 15.4825 134.801 14.9413 134.027 14.9413C133.254 14.9413 132.714 15.4872 132.655 16.3142ZM136.332 18.0208C136.094 18.9702 135.247 19.5537 134.037 19.5537C132.519 19.5537 131.59 18.5125 131.59 16.8185C131.59 15.1256 132.539 14.0515 134.032 14.0515C135.506 14.0515 136.396 15.0585 136.396 16.722V17.0867H132.655V17.1455C132.69 18.0737 133.23 18.6631 134.065 18.6631C134.699 18.6631 135.132 18.4337 135.326 18.0208H136.332Z" fill="#FFFFFE"/>
</svg>
