<svg width="12" height="9" viewBox="0 0 12 9" fill="none" xmlns="http://www.w3.org/2000/svg">
<path d="M11.7558 0.260507C11.4241 -0.0802803 10.8769 -0.0876867 10.536 0.24403L4.18203 6.42857L1.47216 3.71868C1.30924 3.55571 1.09263 3.46597 0.862187 3.46597C0.631745 3.46597 0.415132 3.55571 0.252215 3.71865C-0.0840718 4.05496 -0.0840718 4.60222 0.252215 4.93853L3.56366 8.24995C3.57297 8.2593 3.58258 8.26802 3.59305 8.27716L3.59596 8.27986C3.60562 8.28886 3.61541 8.29769 3.62538 8.30592C3.63585 8.31457 3.64656 8.32263 3.65744 8.33053L3.66384 8.33529C3.67427 8.34321 3.68484 8.35094 3.69534 8.35795C3.7068 8.36562 3.71849 8.37267 3.73031 8.37954L3.73645 8.38319C3.74744 8.38992 3.75855 8.39646 3.76966 8.40232C3.78196 8.40886 3.79448 8.41477 3.80709 8.42051L3.81335 8.42344C3.8245 8.42881 3.83573 8.43399 3.84658 8.43841C3.86025 8.44404 3.87412 8.44896 3.88807 8.45367L3.89322 8.45548C3.90405 8.45944 3.91497 8.46324 3.92658 8.4667C3.94172 8.4712 3.957 8.47498 3.97235 8.47849L3.97645 8.47945L3.975 8.47913C3.98599 8.48201 3.99703 8.48463 4.00779 8.48674C4.02928 8.49094 4.04777 8.49331 4.06148 8.49504C4.07121 8.49656 4.08094 8.4979 4.09041 8.49881C4.11809 8.50149 4.14612 8.50285 4.17378 8.50285C4.20082 8.50285 4.22834 8.50153 4.25548 8.49896C4.26457 8.49809 4.27364 8.49692 4.28323 8.49544C4.29697 8.49375 4.31541 8.49143 4.337 8.48728C4.34736 8.48529 4.35765 8.48288 4.36915 8.47995L4.37147 8.47943C4.38671 8.47599 4.4019 8.47233 4.41701 8.46788C4.42805 8.46464 4.43895 8.46094 4.4506 8.45672L4.45494 8.45527C4.46853 8.45077 4.48205 8.44603 4.4956 8.44059C4.50669 8.43614 4.51763 8.4312 4.52849 8.42604L4.53437 8.42334C4.54691 8.41777 4.55933 8.412 4.57168 8.40558C4.58256 8.39991 4.59324 8.39377 4.60384 8.38744L4.61003 8.38383C4.62174 8.37715 4.63337 8.37028 4.64492 8.36276C4.65531 8.35596 4.66546 8.34869 4.67551 8.34124L4.68156 8.33686C4.6926 8.32901 4.70352 8.32097 4.71421 8.31239C4.72386 8.30461 4.73326 8.29636 4.74252 8.28794L4.74594 8.28492C4.75593 8.27644 4.76572 8.26774 4.77529 8.25844L11.739 1.48036C11.9041 1.31964 11.9968 1.10425 11.9999 0.873877C12.0033 0.643459 11.9165 0.42565 11.7558 0.260507Z" fill="#44C724"/>
</svg>
