<svg width="26" height="16" viewBox="0 0 26 16" fill="none" xmlns="http://www.w3.org/2000/svg">
<path d="M16.4416 1.71075H9.44238V14.2893H16.4416V1.71075Z" fill="#FF5F00"/>
<path d="M9.88657 8.00238C9.88527 6.79081 10.1597 5.59482 10.689 4.50499C11.2183 3.41516 11.9887 2.46005 12.9418 1.712C11.7617 0.784604 10.3445 0.207909 8.85223 0.0478298C7.35993 -0.112249 5.85268 0.150746 4.50277 0.806757C3.15287 1.46277 2.01475 2.48533 1.2185 3.75757C0.422254 5.02981 0 6.5004 0 8.00127C0 9.50214 0.422254 10.9727 1.2185 12.245C2.01475 13.5172 3.15287 14.5398 4.50277 15.1958C5.85268 15.8518 7.35993 16.1148 8.85223 15.9547C10.3445 15.7946 11.7617 15.2179 12.9418 14.2905C11.989 13.5427 11.2188 12.588 10.6895 11.4986C10.1602 10.4091 9.88561 9.21359 9.88657 8.00238Z" fill="#EB001B"/>
<path d="M25.8843 8.00111C25.8843 9.50209 25.462 10.9728 24.6656 12.2451C23.8692 13.5173 22.7309 14.5399 21.3808 15.1958C20.0307 15.8517 18.5233 16.1146 17.031 15.9542C15.5386 15.7939 14.1214 15.217 12.9414 14.2893C13.8938 13.5408 14.6638 12.5858 15.1932 11.4963C15.7227 10.4068 15.9978 9.21132 15.9978 8C15.9978 6.78868 15.7227 5.59318 15.1932 4.5037C14.6638 3.41422 13.8938 2.45921 12.9414 1.71073C14.1214 0.783041 15.5386 0.206066 17.031 0.0457573C18.5233 -0.114552 20.0307 0.148274 21.3808 0.804192C22.7309 1.46011 23.8692 2.48265 24.6656 3.75494C25.462 5.02722 25.8843 6.49791 25.8843 7.99889V8.00111Z" fill="#F79E1B"/>
</svg>
